<?xml version="1.0" standalone="no"?>
<!DOCTYPE svg PUBLIC "-//W3C//DTD SVG 20010904//EN"
 "http://www.w3.org/TR/2001/REC-SVG-20010904/DTD/svg10.dtd">
<svg version="1.0" xmlns="http://www.w3.org/2000/svg"
 width="700.000000pt" height="700.000000pt" viewBox="0 0 700.000000 700.000000"
 preserveAspectRatio="xMidYMid meet">
<metadata>
Created by potrace 1.11, written by Peter Selinger 2001-2013
</metadata>
<g transform="translate(0.000000,700.000000) scale(0.100000,-0.100000)"
fill="#000000" stroke="none">
<path d="M4775 6984 c-467 -58 -861 -214 -1230 -488 -316 -235 -557 -522 -741
-881 -128 -252 -220 -534 -249 -770 -4 -27 -8 -61 -11 -75 -4 -25 -13 -157
-17 -257 -2 -33 1 -49 8 -45 5 3 35 22 65 42 137 91 378 218 520 275 25 10 59
23 75 30 17 7 59 22 95 34 65 21 66 22 68 59 11 157 68 386 140 562 193 472
543 843 1004 1064 282 135 567 196 893 191 99 -2 191 -6 205 -9 14 -3 43 -7
65 -10 259 -32 566 -149 804 -306 98 -64 216 -155 240 -184 8 -9 24 -22 35
-28 28 -15 -81 109 -184 209 -294 285 -670 485 -1050 558 -12 2 -29 6 -38 9
-9 2 -44 8 -77 12 -33 3 -71 9 -85 11 -59 11 -442 9 -535 -3z"/>
<path d="M4333 6156 c-214 -110 -346 -241 -442 -439 -52 -107 -58 -136 -34
-164 10 -12 26 -31 36 -43 35 -41 155 -225 190 -291 106 -196 197 -476 221
-674 45 -381 5 -705 -131 -1043 -40 -98 -44 -114 -31 -125 187 -150 313 -228
508 -315 58 -26 218 -82 234 -82 10 0 33 49 111 235 62 148 138 457 160 650 3
28 8 61 11 75 10 43 12 490 4 580 -41 439 -169 854 -370 1200 -66 115 -328
499 -340 499 -3 0 -60 -28 -127 -63z"/>
<path d="M3975 4790 c-27 -4 -70 -10 -95 -14 -47 -6 -60 -9 -150 -27 -65 -13
-242 -59 -252 -65 -5 -3 -16 -7 -25 -9 -28 -5 -193 -65 -240 -86 -23 -10 -45
-19 -48 -19 -7 0 -227 -110 -277 -139 -21 -11 -55 -31 -75 -42 -42 -23 -266
-175 -298 -201 -11 -9 -40 -33 -65 -53 -106 -87 -147 -124 -245 -224 -119
-121 -232 -258 -315 -381 -122 -182 -398 -698 -385 -720 17 -28 246 -125 399
-170 147 -42 249 -61 401 -75 l70 -6 29 78 c69 190 200 414 338 578 274 325
616 542 1038 658 75 21 158 37 270 52 30 4 56 8 57 9 3 3 12 56 19 116 8 70 8
285 -1 370 -10 106 -17 149 -47 283 -16 74 -25 97 -37 96 -9 -1 -38 -5 -66 -9z"/>
<path d="M5402 4544 c6 -9 9 -26 27 -154 9 -64 7 -416 -2 -455 -3 -11 -8 -42
-11 -70 -9 -64 -12 -82 -35 -185 -11 -47 -18 -85 -18 -85 11 -3 192 -116 222
-139 219 -171 376 -368 514 -649 146 -297 209 -576 206 -911 -3 -269 -44 -480
-142 -724 -161 -404 -448 -743 -823 -975 -87 -53 -285 -149 -348 -168 -65 -19
-42 -22 34 -4 38 9 76 18 84 20 47 11 192 61 277 96 591 246 1026 735 1238
1389 36 112 79 288 90 366 3 22 7 53 10 69 27 180 27 486 0 675 -12 89 -19
126 -40 220 -90 396 -257 737 -509 1040 -96 116 -262 279 -387 382 -125 102
-405 292 -387 262z"/>
<path d="M287 4493 c-4 -16 -13 -62 -22 -103 -9 -41 -18 -93 -21 -115 -3 -22
-7 -46 -10 -53 -7 -23 -18 -203 -18 -302 0 -210 27 -390 90 -596 105 -350 302
-672 584 -955 57 -58 95 -92 201 -184 50 -43 233 -167 328 -222 83 -48 142
-78 276 -139 126 -57 416 -140 570 -163 44 -7 89 -14 100 -17 103 -22 580 -22
646 0 8 3 32 7 54 10 35 5 82 13 164 30 209 44 465 140 655 244 l79 44 -74 40
c-41 22 -90 50 -109 62 -106 68 -133 87 -217 148 -88 64 -210 164 -243 197 -9
9 -27 26 -41 39 l-26 22 -95 -44 c-163 -76 -391 -147 -518 -162 -30 -3 -58 -8
-61 -10 -11 -6 -193 -18 -279 -18 -89 1 -269 12 -279 18 -3 2 -27 7 -54 10
-80 11 -267 62 -372 101 -185 70 -388 183 -538 302 -69 55 -245 225 -299 290
-140 167 -267 384 -343 588 -37 99 -92 297 -100 365 -3 19 -9 70 -15 113 -14
97 -16 270 -6 395 7 91 4 118 -7 65z"/>
<path d="M3680 3543 c-191 -71 -449 -238 -623 -403 -56 -52 -65 -65 -56 -81
24 -45 182 -234 282 -335 398 -406 920 -704 1452 -829 102 -24 119 -27 240
-45 118 -18 127 -19 266 -26 256 -13 811 -5 828 12 10 10 13 44 16 184 3 153
-9 257 -45 390 -12 41 -22 80 -23 85 -12 44 -102 241 -121 262 -2 2 -43 -6
-92 -16 -178 -39 -286 -49 -474 -45 -168 3 -188 5 -340 31 -70 12 -232 57
-318 89 -87 32 -291 127 -317 147 -5 4 -46 30 -89 58 -100 64 -200 144 -299
238 -77 74 -198 212 -230 264 -17 27 -28 31 -57 20z"/>
</g>
</svg>
